<svg xmlns="http://www.w3.org/2000/svg" viewBox="0 0 300 64" role="img" aria-label="たすかるワーク TaskAllWork">
  <defs>
    <linearGradient id="tw-bg-w" x1="0" y1="0" x2="1" y2="1">
      <stop offset="0" stop-color="#1489cf"/>
      <stop offset="1" stop-color="#083f66"/>
    </linearGradient>
  </defs>
  <rect x="2" y="2" width="60" height="60" rx="17" fill="url(#tw-bg-w)"/>
  <path d="M33 13.5c-10.8 0-19.5 7-19.5 15.6 0 4.9 2.8 9.2 7.2 12.1-.1 2.6-1 5.1-2.9 7.3 3.8-.5 7.1-2 9.6-4.2 1.8.4 3.7.6 5.6.6 10.8 0 19.5-7 19.5-15.8S43.8 13.5 33 13.5z" fill="#ffffff"/>
  <path d="M25 30l6.2 6.2L42.5 24" fill="none" stroke="#ee7524" stroke-width="5.2" stroke-linecap="round" stroke-linejoin="round"/>
  <text x="74" y="36" font-family="'Zen Maru Gothic', 'Hiragino Maru Gothic ProN', 'Hiragino Kaku Gothic ProN', sans-serif" font-size="26" font-weight="900" letter-spacing="0.04em">
    <tspan fill="#ffffff">たすか</tspan><tspan fill="#f68b3c">る</tspan><tspan fill="#ffffff">ワーク</tspan>
  </text>
  <text x="76" y="54" font-family="Montserrat, 'Helvetica Neue', Arial, sans-serif" font-size="10.5" font-weight="700" letter-spacing="0.24em">
    <tspan fill="rgba(255,255,255,0.65)">TASK </tspan><tspan fill="#f68b3c">ALL</tspan><tspan fill="rgba(255,255,255,0.65)"> WORK</tspan>
  </text>
</svg>
